<?xml version="1.0" encoding="utf-8"?>
<!-- Generator: Adobe Illustrator 21.0.0, SVG Export Plug-In . SVG Version: 6.00 Build 0)  -->
<svg version="1.1" id="图层_1" xmlns="http://www.w3.org/2000/svg" xmlns:xlink="http://www.w3.org/1999/xlink" x="0px" y="0px"
	 viewBox="0 0 565.3 565.3" style="enable-background:new 0 0 565.3 565.3;" xml:space="preserve">
<style type="text/css">
	.st0{fill:#FFFFFF;}
	.st1{fill:#FF0000;}
</style>
<path d="M535.3,565.3H30c-16.6,0-30-13.4-30-30V30C0,13.4,13.4,0,30,0h505.3c16.6,0,30,13.4,30,30v505.3
	C565.3,551.9,551.9,565.3,535.3,565.3z"/>
<g>
	<polygon class="st0" points="300.2,229.2 318.7,191.4 367.8,227.3 389,198.2 374.3,188 427.1,180.8 423,145.3 336.1,157 
		343.3,142.3 311.5,126.4 268.1,212.9 	"/>
	<polygon class="st0" points="174.8,197.1 231.8,242.8 254.5,214.8 222.8,189.9 270,186.1 267,150.6 192.5,156.7 200.1,139.3 
		167.6,125.3 123,225.8 155.5,240.5 	"/>
	<polygon class="st1" points="369,322.1 364.8,286.6 290.8,295.7 286.6,332.3 	"/>
	<polygon class="st0" points="417.3,373.9 414.3,338.7 284.3,350.5 286.6,332.3 290.8,295.7 292.7,280.6 395.4,268.9 391.6,233.3 
		143.8,261.3 148,296.4 256.4,284.3 254.5,300.2 174.4,309.7 178.9,345.2 250,336.5 248.1,353.9 137.8,363.7 141.2,399.2 
		243.5,389.7 279.8,386.3 	"/>
	<polygon class="st1" points="408.6,381.4 401.1,403.7 278.3,401.1 279.8,386.3 243.5,389.7 240.5,416.2 257.5,435.8 413.5,440 
		430.9,427.9 442.3,392.8 	"/>
</g>
<line x1="279.9" y1="280.8" x2="285.4" y2="284.5"/>
</svg>
